# xmcd
#
# Track frame offsets:
#	150
#	28067
#	46787
#	65510
#	86852
#	103477
#	119452
#	142090
#	157145
#	177107
#
# Disc length: 2651 seconds
#
# Revision: 4
# Processed by: cddbd v1.5.2PL0 Copyright (c) Steve Scherf et al.
# Submitted via: EZCDAudioConverter 8.0.2.1
#
DISCID=930a590a
DTITLE=Lâm Thúy Vân, Don Hồ, Nini - Đoản Khúc Cuối Cho Em
DYEAR=1994
DGENRE=Vietnamese
TTITLE0=Don Hồ - Trái tim mùa đông
TTITLE1=Lâm Thúy Vân, Don Hồ - Cỏ úa
TTITLE2=Nini, Don Hồ - Người mẹ buồn
TTITLE3=Nini - Xa anh kỷ niiệm
TTITLE4=Lâm Thúy Vân, Don Hồ - Chiều một mình qua phố
TTITLE5=Lâm Thúy Vân, Don Hồ - Bây giờ còn yêu
TTITLE6=Lâm Thúy Vân - Hỡi người tình
TTITLE7=Nini, Don Hồ - Biển
TTITLE8=Nini, Don Hồ - Biển mộng
TTITLE9=Don Hồ - Đoản Khúc Cuối Cho Em
EXTD=
EXTT0=
EXTT1=
EXTT2=
EXTT3=
EXTT4=
EXTT5=
EXTT6=
EXTT7=
EXTT8=
EXTT9=
PLAYORDER=
